<svg xmlns="http://www.w3.org/2000/svg" viewBox="0 0 448 512"><path fill="white" d="M224.1 141c-63.6 0-114.9 51.3-114.9 114.9S160.5 370.8 224.1 370.8 339 319.5 339 255.9 287.7 141 224.1 141zm0 190.7c-41.9 0-75.8-33.9-75.8-75.8s33.9-75.8 75.8-75.8 75.8 33.9 75.8 75.8-33.9 75.8-75.8 75.8zm146.4-194.3c0 14.9-12 26.9-26.9 26.9s-26.9-12-26.9-26.9 12-26.9 26.9-26.9 26.9 12 26.9 26.9zm76.1 27.2c-1.7-35.3-9.9-66.7-36.3-92.9C382.3 6.2 350.9-2 315.6.1c-35.3 1.7-123.2 1.7-158.5 0-35.3-1.7-66.7 6.1-92.9 32.5S6.2 99.7 4.5 135c-1.7 35.3-1.7 123.2 0 158.5 1.7 35.3 9.9 66.7 36.3 92.9 26.2 26.2 57.6 34 92.9 32.3 35.3-1.7 123.2-1.7 158.5 0 35.3 1.7 66.7-6.1 92.9-32.3 26.2-26.2 34-57.6 32.3-92.9 1.7-35.3 1.7-123.2 0-158.5zM398.8 388c-7.8 19.5-22.9 34.6-42.4 42.4-29.4 11.7-99.2 9-132.3 9s-102.9 2.6-132.3-9c-19.5-7.8-34.6-22.9-42.4-42.4-11.7-29.4-9-99.2-9-132.3s-2.6-102.9 9-132.3c7.8-19.5 22.9-34.6 42.4-42.4 29.4-11.7 99.2-9 132.3-9s102.9-2.6 132.3 9c19.5 7.8 34.6 22.9 42.4 42.4 11.7 29.4 9 99.2 9 132.3s2.6 102.9-9 132.3z"/></svg>